<svg xmlns="http://www.w3.org/2000/svg" xmlns:svg="http://www.w3.org/2000/svg" xmlns:xlink="http://www.w3.org/1999/xlink" id="svg1307" width="502.019" height="3047.682" preserveAspectRatio="none" version="1.1" viewBox="0 0 502.019 3047.682"><metadata id="metadata1311"/><defs id="defs1115"><style id="style1083">.cls-2{isolation:isolate}.cls-3{fill:#164d81}.cls-4{fill:#0e3c69}.cls-5{fill:#e5e6e6}.cls-6{fill:#db4f2c}.cls-7{fill:#b84226}.cls-8{fill:#015ca4}.cls-10,.cls-9{fill:#fff}.cls-10{fill-rule:evenodd}.x-1{fill:none}.x-4{opacity:.75}.x-5{clip-path:url(#clip-path)}.x-6{mix-blend-mode:overlay}.x-7{fill:url(#radial-gradient)}.x-8{fill:url(#radial-gradient-6)}.x-9{fill:url(#radial-gradient-20)}.x-10{fill:url(#radial-gradient-21)}.x-11{fill:url(#radial-gradient-24)}</style><clipPath id="clip-path"><rect id="rect1085" width="582.37" height="212.42" x="-10.74" y="-6.21" fill="none" class="x-1"/></clipPath><radialGradient id="radial-gradient" cx="266.14" cy="99.47" r="275.88" gradientTransform="matrix(0.97,0,0,1,-181.94,0)" gradientUnits="userSpaceOnUse"><stop id="stop1088" offset="0" stop-color="#fff"/><stop id="stop1090" offset=".11" stop-color="#fff" stop-opacity=".98"/><stop id="stop1092" offset=".24" stop-color="#fff" stop-opacity=".93"/><stop id="stop1094" offset=".37" stop-color="#fff" stop-opacity=".85"/><stop id="stop1096" offset=".5" stop-color="#fff" stop-opacity=".73"/><stop id="stop1098" offset=".63" stop-color="#fff" stop-opacity=".57"/><stop id="stop1100" offset=".77" stop-color="#fff" stop-opacity=".39"/><stop id="stop1102" offset=".91" stop-color="#fff" stop-opacity=".17"/><stop id="stop1104" offset="1" stop-color="#fff" stop-opacity="0"/></radialGradient><radialGradient id="radial-gradient-6" cx="266.14" cy="99.47" r="275.88" gradientTransform="matrix(0.8,0.55,-0.56,0.83,-78.61,-135.55)" xlink:href="#radial-gradient"/><radialGradient id="radial-gradient-20" cx="280.34" cy="100" r="0" gradientTransform="matrix(0.78,0.57,-0.59,0.81,-69.94,-141.51)" xlink:href="#radial-gradient"/><radialGradient id="radial-gradient-21" cx="280.34" cy="100" r="0" gradientTransform="matrix(0.78,0.57,-0.59,0.81,-69.94,-141.51)" xlink:href="#radial-gradient"/><radialGradient id="radial-gradient-24" cx="280.33" cy="100" r="0" xlink:href="#radial-gradient"/><radialGradient id="radialGradient1313" cx="266.14" cy="99.47" r="275.88" gradientTransform="matrix(0.97,0,0,1,-181.94,0)" gradientUnits="userSpaceOnUse" xlink:href="#radial-gradient"/><radialGradient id="radialGradient1315" cx="266.14" cy="99.47" r="275.88" gradientTransform="matrix(0.97,0,0,1,-181.94,0)" gradientUnits="userSpaceOnUse" xlink:href="#radial-gradient"/><radialGradient id="radialGradient1317" cx="266.14" cy="99.47" r="275.88" gradientTransform="matrix(0.97,0,0,1,-181.94,0)" gradientUnits="userSpaceOnUse" xlink:href="#radial-gradient"/><radialGradient id="radialGradient1319" cx="266.14" cy="99.47" r="275.88" gradientTransform="matrix(0.97,0,0,1,-181.94,0)" gradientUnits="userSpaceOnUse" xlink:href="#radial-gradient"/><radialGradient id="radialGradient1321" cx="266.14" cy="99.47" r="275.88" gradientTransform="matrix(0.97,0,0,1,-181.94,0)" gradientUnits="userSpaceOnUse" xlink:href="#radial-gradient"/><radialGradient id="radialGradient1323" cx="266.14" cy="99.47" r="275.88" gradientTransform="matrix(0.8,0.55,-0.56,0.83,-78.61,-135.55)" xlink:href="#radial-gradient"/><radialGradient id="radialGradient1325" cx="266.14" cy="99.47" r="275.88" gradientTransform="matrix(0.97,0,0,1,-181.94,0)" gradientUnits="userSpaceOnUse" xlink:href="#radial-gradient"/><radialGradient id="radialGradient1327" cx="266.14" cy="99.47" r="275.88" gradientTransform="matrix(0.97,0,0,1,-181.94,0)" gradientUnits="userSpaceOnUse" xlink:href="#radial-gradient"/><radialGradient id="radialGradient1329" cx="266.14" cy="99.47" r="275.88" gradientTransform="matrix(0.97,0,0,1,-181.94,0)" gradientUnits="userSpaceOnUse" xlink:href="#radial-gradient"/><radialGradient id="radialGradient1331" cx="266.14" cy="99.47" r="275.88" gradientTransform="matrix(0.97,0,0,1,-181.94,0)" gradientUnits="userSpaceOnUse" xlink:href="#radial-gradient"/><radialGradient id="radialGradient1333" cx="266.14" cy="99.47" r="275.88" gradientTransform="matrix(0.97,0,0,1,-181.94,0)" gradientUnits="userSpaceOnUse" xlink:href="#radial-gradient"/><radialGradient id="radialGradient1335" cx="266.14" cy="99.47" r="275.88" gradientTransform="matrix(0.97,0,0,1,-181.94,0)" gradientUnits="userSpaceOnUse" xlink:href="#radial-gradient"/><radialGradient id="radialGradient1337" cx="266.14" cy="99.47" r="275.88" gradientTransform="matrix(0.97,0,0,1,-181.94,0)" gradientUnits="userSpaceOnUse" xlink:href="#radial-gradient"/><radialGradient id="radialGradient1339" cx="266.14" cy="99.47" r="275.88" gradientTransform="matrix(0.97,0,0,1,-181.94,0)" gradientUnits="userSpaceOnUse" xlink:href="#radial-gradient"/><radialGradient id="radialGradient1341" cx="266.14" cy="99.47" r="275.88" gradientTransform="matrix(0.97,0,0,1,-181.94,0)" gradientUnits="userSpaceOnUse" xlink:href="#radial-gradient"/><radialGradient id="radialGradient1343" cx="266.14" cy="99.47" r="275.88" gradientTransform="matrix(0.97,0,0,1,-181.94,0)" gradientUnits="userSpaceOnUse" xlink:href="#radial-gradient"/><radialGradient id="radialGradient1345" cx="266.14" cy="99.47" r="275.88" gradientTransform="matrix(0.97,0,0,1,-181.94,0)" gradientUnits="userSpaceOnUse" xlink:href="#radial-gradient"/><radialGradient id="radialGradient1347" cx="266.14" cy="99.47" r="275.88" gradientTransform="matrix(0.97,0,0,1,-181.94,0)" gradientUnits="userSpaceOnUse" xlink:href="#radial-gradient"/><radialGradient id="radialGradient1349" cx="266.14" cy="99.47" r="275.88" gradientTransform="matrix(0.97,0,0,1,-181.94,0)" gradientUnits="userSpaceOnUse" xlink:href="#radial-gradient"/><radialGradient id="radialGradient1351" cx="266.14" cy="99.47" r="275.88" gradientTransform="matrix(0.97,0,0,1,-181.94,0)" gradientUnits="userSpaceOnUse" xlink:href="#radial-gradient"/><radialGradient id="radialGradient1353" cx="266.14" cy="99.47" r="275.88" gradientTransform="matrix(0.97,0,0,1,-181.94,0)" gradientUnits="userSpaceOnUse" xlink:href="#radial-gradient"/><radialGradient id="radialGradient1355" cx="266.14" cy="99.47" r="275.88" gradientTransform="matrix(0.97,0,0,1,-181.94,0)" gradientUnits="userSpaceOnUse" xlink:href="#radial-gradient"/><radialGradient id="radialGradient1357" cx="266.14" cy="99.47" r="275.88" gradientTransform="matrix(0.97,0,0,1,-181.94,0)" gradientUnits="userSpaceOnUse" xlink:href="#radial-gradient"/></defs><title id="title1117">AC-banner</title><g id="g8202" transform="matrix(0,-2.5100938,2.5100938,0,0,3047.6819)"><rect id="rect1581" width="1214.17" height="200" x="0" y="0" fill="#e9e9e9" fill-opacity="1" stroke="none" stroke-dasharray="none" stroke-miterlimit="4" stroke-opacity="1" stroke-width="0"/><g style="isolation:isolate" id="g1179" class="x-4" opacity=".75" transform="translate(0,0.28035766)"><g id="g1177" class="x-5" clip-path="url(#clip-path)"><g style="mix-blend-mode:overlay" id="g1175" class="x-6"><path id="path1121" fill="url(#radialGradient1313)" d="m 89.82,100 v 0 l 75.9,326.13 a 320.77,320.77 0 0 0 45,-14.77 l 3.5,-1.5 z" class="x-7"/><path id="path1123" fill="url(#radialGradient1315)" d="m 89.82,100 v 0 l 169.89,286 5.65,-3.57 a 322.34,322.34 0 0 0 30.7,-23 L 301,355 Z" class="x-7"/><path id="path1125" fill="url(#radialGradient1317)" d="m 89.82,100 247.24,217.83 0.7,-0.84 A 337,337 0 0 0 367,275.3 v 0 z" class="x-7"/><path id="path1127" fill="url(#radialGradient1319)" d="m 390.21,228.35 1.5,-3.74 a 342.84,342.84 0 0 0 13,-41 L 406,178.3 89.83,100 Z" class="x-7"/><path id="path1129" fill="url(#radialGradient1321)" d="m 414,126.32 0.52,-6.73 A 345.13,345.13 0 0 0 414.39,78.75 L 414,73.69 89.83,100 Z" class="x-7"/><rect id="rect1131" width=".01" height="0" x="89.82" y="100" fill="url(#radialGradient1323)" class="x-8" transform="rotate(-34.23,89.827299,99.995904)"/><path id="path1133" fill="url(#radialGradient1325)" d="m 406,21.7 v -0.19 a 345.73,345.73 0 0 0 -14.25,-46.2 L 390.28,-28.36 89.82,100 Z" class="x-7"/><path id="path1135" fill="url(#radialGradient1327)" d="m 367,-75.25 -3.47,-5.84 a 333.75,333.75 0 0 0 -22.31,-31.66 l -4.21,-5.08 L 89.83,100 Z" class="x-7"/><rect id="rect1137" width=".01" height="0" x="89.82" y="100" fill="url(#radial-gradient-6)" class="x-8" transform="rotate(-34.23,89.827299,99.995904)"/><path id="path1139" fill="url(#radialGradient1329)" d="m 89.82,100 v 0 L 301,-155 a 327.91,327.91 0 0 0 -41.25,-31 v 0 z" class="x-7"/><path id="path1141" fill="url(#radialGradient1331)" d="m 214.25,-209.87 -0.15,-0.06 -3.42,-1.46 a 318.85,318.85 0 0 0 -39.79,-13.46 l -5.17,-1.28 L 89.82,100 Z" class="x-7"/><path id="path1143" fill="url(#radialGradient1333)" d="m 89.82,100 25.51,-334.37 -6.54,-0.53 a 314.47,314.47 0 0 0 -39.69,0.14 l -4.79,0.39 z" class="x-7"/><path id="path1145" fill="url(#radialGradient1335)" d="m 89.82,100 -25.51,334.38 6.41,0.52 a 313.6,313.6 0 0 0 40.15,-0.15 l 4.46,-0.37 z" class="x-7"/><path id="path1147" fill="url(#radialGradient1337)" d="m 89.82,100 -124.42,309.88 1.42,0.61 2,0.87 A 318.68,318.68 0 0 0 9,424.93 l 4.92,1.21 z" class="x-7"/><path id="path1149" fill="url(#radialGradient1339)" d="m 89.82,100 -211.16,255 a 327.48,327.48 0 0 0 41.27,31 z" class="x-7"/><path id="path1151" fill="url(#radialGradient1341)" d="m 89.82,100 v 0 L -187.41,275.25 -184,281 a 333.74,333.74 0 0 0 22.52,31.92 l 4,4.88 z" class="x-7"/><path id="path1153" fill="url(#radialGradient1343)" d="m 89.82,100 v 0 l -316.16,78.3 v 0 a 345.46,345.46 0 0 0 14.34,46.49 l 1.43,3.57 z" class="x-7"/><path id="path1155" fill="url(#radialGradient1345)" d="m 89.82,100 v 0 l -324.14,-26.31 -0.52,6.8 a 342.7,342.7 0 0 0 0.11,40.48 l 0.4,5.34 z" class="x-7"/><rect id="rect1157" width="0" height=".01" x="89.81" y="100" fill="url(#radialGradient1347)" class="x-7"/><rect id="rect1159" width="0" height="0" x="89.82" y="100" fill="url(#radial-gradient-20)" class="x-9" transform="rotate(-36.31,89.825276,100.01088)"/><circle id="circle1161" cx="89.82" cy="100" r="0" fill="url(#radial-gradient-21)" class="x-10" transform="rotate(-36.31,89.825276,100.01088)"/><path id="path1163" fill="url(#radialGradient1349)" d="m 89.82,100 v 0 l -300.39,-128.35 -1.52,3.78 a 342.83,342.83 0 0 0 -13,40.85 l -1.26,5.42 316.16,78.3 z" class="x-7"/><path id="path1165" fill="url(#radialGradient1351)" d="m 89.82,100 v 0 l -247.24,-217.83 -0.18,0.21 a 336.62,336.62 0 0 0 -29.76,42.28 l -0.05,0.09 z" class="x-7"/><polygon id="polygon1167" fill="url(#radial-gradient-24)" points="89.82 99.99 89.82 100" class="x-11"/><polygon id="polygon1169" fill="url(#radialGradient1353)" class="x-7"/><path id="path1171" fill="url(#radialGradient1355)" d="m 89.82,100 v 0 l -169.89,-286 -5.66,3.58 a 323.38,323.38 0 0 0 -30.67,23 l -4.95,4.36 z" class="x-7"/><path id="path1173" fill="url(#radialGradient1357)" d="m 89.82,100 v 0 l -75.9,-326.14 -0.18,0.05 a 320.38,320.38 0 0 0 -44.84,14.72 l -3.51,1.5 z" class="x-7"/></g></g></g></g><g id="g156" class="cls-2" display="inline" transform="translate(50.7131,2545.7755)" style="isolation:isolate"><g id="artwork"><polygon id="polygon30" fill="#164d81" points="17.46 112.71 11 81.06 391 81.06 384.54 112.71 391 144.37 11 144.37" class="cls-3"/><path id="path32" fill="#0e3c69" d="M 365.26,119.14 308.73,81 v 38.78 z" class="cls-4"/><path id="path34" fill="#0e3c69" d="M 36.74,119.14 93.27,81 v 38.78 z" class="cls-4"/><polygon id="polygon36" fill="#e5e6e6" points="318.95 382.86 201 433.29 83.05 382.86 83.05 181.92 318.95 181.92" class="cls-5"/><rect id="rect38" width="235.9" height="152.09" x="83.05" y="16.71" fill="#db4f2c" class="cls-6"/><polygon id="polygon40" fill="#b84226" points="158.84 365.05 157.14 352.22 166.43 366.67 171.18 368.59 162.3 341.7 162.3 320.45 200.96 313.63 223.8 328.72 221.02 349.58 189.01 348.92 193.63 374.67 184.6 393.21 140.75 374.15 150.49 372.02" class="cls-7"/><polygon id="polygon42" fill="#b84226" points="152.71 371.29 152.09 375.07 151.48 378.86 144.75 375.82 138.01 372.78 145.36 372.04" class="cls-7"/><polygon id="polygon44" fill="#b84226" points="155.87 367.61 153.93 370.91 151.98 374.22 146.81 368.94 141.63 363.67 148.75 365.64" class="cls-7"/><polygon id="polygon46" fill="#b84226" points="160.16 365.32 157.15 367.7 154.13 370.07 151.22 363.28 148.31 356.49 154.24 360.91" class="cls-7"/><polygon id="polygon48" fill="#b84226" points="164.98 364.75 161.31 365.87 157.64 366.99 157.39 359.61 157.14 352.22 161.06 358.49" class="cls-7"/><polygon id="polygon50" fill="#b84226" points="175.47 259.04 134.93 243.45 139.97 267.41 173.75 285.81" class="cls-7"/><polygon id="polygon52" fill="#db4f2c" points="163.8 302.5 188.68 299 206.42 276.42 235.95 262.41 235.95 226.44 221.44 206.93 190.91 206.93 184.91 215.43 167.89 215.43 167.89 227.44 174.4 232.95 180.9 227.94 187.31 234.33 183.37 237.82 167.89 237.82 167.89 249.96 174.9 244.96 194.41 244.96 194.41 250.96 174.9 250.98 159.63 264.47 159.63 278.73" class="cls-6"/><polygon id="polygon54" fill="#b84226" points="139.66 225.36 135.95 224.08 132.24 222.8 136.47 216.53 140.71 210.26 140.19 217.81" class="cls-7"/><polygon id="polygon56" fill="#b84226" points="134.7 222.53 130.91 223.56 127.11 224.59 127.1 217.02 127.08 209.46 130.89 215.99" class="cls-7"/><polygon id="polygon58" fill="#b84226" points="128.94 223 126.4 226 123.86 229 119.56 222.78 115.25 216.56 122.09 219.78" class="cls-7"/><polygon id="polygon60" fill="#b84226" points="109.52 229.3 124.43 226.72 124.07 230.63 123.71 234.55" class="cls-7"/><polygon id="polygon62" fill="#db4f2c" points="128.06 291.47 125.05 293.98 122.03 296.5 118.86 289.62 115.7 282.75 121.88 287.11" class="cls-6"/><polygon id="polygon64" fill="#db4f2c" points="123.07 294.25 121.99 298.03 120.9 301.8 114.42 297.9 107.94 294 115.51 294.12" class="cls-6"/><polygon id="polygon66" fill="#db4f2c" points="120.49 299.42 121.74 303.14 122.99 306.87 115.44 307.33 107.89 307.8 114.19 303.61" class="cls-6"/><polygon id="polygon68" fill="#db4f2c" points="121.34 305.21 124.5 307.54 127.66 309.87 121.74 314.58 115.82 319.3 118.58 312.25" class="cls-6"/><polyline id="polyline70" fill="#015ca4" points="163.22 234.79 156.48 228.51 146.72 228.51 149.23 224.28 160.07 224.28 172.3 234.79" class="cls-8"/><polyline id="polyline72" fill="#db4f2c" points="188.13 263.05 125.67 290.34 121.34 295.84 119.69 302.34 122.86 308.84 127.32 310.02 188.51 288.17" class="cls-6"/><polygon id="polygon74" fill="#db4f2c" points="265.51 334.96 226.81 304.85 218.6 269.8 208.6 272 177.04 273.43 163.8 291.83 163.8 302.5 215.36 336.03 223.8 340.57 244.63 330.86" class="cls-6"/><polygon id="polygon76" fill="#db4f2c" points="248.46 356.34 249.04 330.12 212.36 330.03 215.36 361.85 238.66 374.04 234.26 375.92 224.19 374.02 220.53 386.51 225.51 395.17 261.28 379.87 261.16 367" class="cls-6"/><polygon id="polygon78" fill="#db4f2c" points="222.65 388.18 225.08 391.27 227.51 394.35 220.56 397.33 213.61 400.31 218.13 394.25" class="cls-6"/><polygon id="polygon80" fill="#db4f2c" points="222.07 383.25 223.21 387 224.36 390.76 216.8 391.01 209.24 391.27 215.65 387.26" class="cls-6"/><polygon id="polygon82" fill="#db4f2c" points="223.31 378.43 223.01 382.35 222.72 386.27 215.58 383.76 208.44 381.25 215.88 379.84" class="cls-6"/><polygon id="polygon84" fill="#db4f2c" points="226.21 374.4 224.52 377.94 222.82 381.49 217.08 376.56 211.34 371.64 218.77 373.02" class="cls-6"/><polygon id="polygon86" fill="#db4f2c" points="287.19 252.76 244.36 276.1 244.36 292.47 286.89 318.17 286.89 325.65 265.51 334.96 235.76 326.42 265.16 342.85 293.98 330.3 293.98 314.17 251.45 288.48 251.45 280.31 294.28 256.97 294.28 222.83 281.15 207.29 255.23 207.29 244.07 222.99 244.07 232.61 251.46 240 257.78 241.35 256.47 234.99 251.16 229.68 251.16 225.26 258.89 214.38 277.86 214.38 287.19 225.42" class="cls-6"/><polygon id="polygon88" fill="#db4f2c" points="287.69 269.55 249.69 290.46 256.78 294.67 294.71 273.8" class="cls-6"/><polygon id="polygon90" fill="#db4f2c" points="294.07 288.12 287.27 284.01 261.75 298 268.84 302.21" class="cls-6"/><polygon id="polygon92" fill="#db4f2c" points="282.11 308.41 294.21 301.43 287.53 297.39 275.45 304.5" class="cls-6"/><polygon id="polygon94" fill="#b84226" points="249.05 239.37 248.97 254.23 269.06 257.14 267.87 234.99 254.37 234.94" class="cls-7"/><polyline id="polyline96" fill="#db4f2c" points="235.76 326.42 254.76 327.92 265.51 334.96" class="cls-6"/><polygon id="polygon98" fill="#b84226" points="126.12 224.58 122.85 228.38 123.33 234.59 139.97 267.41 156.9 258.88 139.66 225.38 135.51 222.91 130.69 222.9" class="cls-7"/><g id="W3C"><path id="path100" fill="#fff" d="M 173.16,39 184.41,77.24 195.65,39 h 30.5 v 3.8 l -11.47,19.82 a 16,16 0 0 1 9.14,7.06 22.73,22.73 0 0 1 3.11,12 22.55,22.55 0 0 1 -4.55,14.35 14.73,14.73 0 0 1 -21.21,2.36 20.29,20.29 0 0 1 -6,-9.34 l 6.36,-2.64 a 14.45,14.45 0 0 0 3.68,5.62 7.77,7.77 0 0 0 5.39,2.05 q 3.25,0 5.5,-3.65 a 16.36,16.36 0 0 0 2.25,-8.76 c 0,-3.77 -0.81,-6.7 -2.41,-8.76 -1.86,-2.43 -4.79,-3.65 -8.76,-3.65 h -3.1 V 65.57 L 215,46.8 h -13.1 l -0.76,1.27 -15.94,53.8 h -0.77 l -11.65,-38.94 -11.64,38.94 h -0.77 L 141.75,39 h 8.14 l 11.25,38.24 7.6,-25.75 L 165,39 Z" class="cls-9"/><path id="path102" fill="#fff" fill-rule="evenodd" d="m 258.49,38.69 -4.6,9.17 A 23,23 0 0 0 250,42.55 c -1.86,-1.59 -4.25,-3.06 -7.31,-2.74 -3.06,0.32 -6.27,2.89 -8.5,7.21 a 32.6,32.6 0 0 0 -3.41,15.36 29.32,29.32 0 0 0 2.8,12.93 25.52,25.52 0 0 1 -0.54,-6.57 32.25,32.25 0 0 1 2,-11.17 c 1.63,-4.84 5.34,-8.76 8.62,-9.44 2.56,-0.52 4.19,-0.14 6.7,1.63 a 17.19,17.19 0 0 1 4.77,5.89 l 4.67,-8.94 -1.32,-8 z m 0.58,45.38 a 39.17,39.17 0 0 1 -3.36,5.11 20.52,20.52 0 0 1 -6.43,5.18 12,12 0 0 1 -7.14,1.22 13.92,13.92 0 0 1 -6.32,-2.58 24.16,24.16 0 0 1 -4.57,-4.53 c -1.32,-1.86 -3.38,-5.59 -3.38,-5.59 0,0 1.15,3.73 1.86,5.31 a 34.56,34.56 0 0 0 3.5,6.13 c 1.68,2.25 5,6.16 9.93,7 a 12.67,12.67 0 0 0 9.24,-1.89 25.14,25.14 0 0 0 3.75,-3.24 27.87,27.87 0 0 0 2.92,-3.84 c 0.45,-0.7 1.18,-2.13 1.18,-2.13 l -1.18,-6.19 z" class="cls-10"/></g><rect id="rect105" width="328.29" height="63.3" x="36.85" y="119.14" fill="#015ca4" class="cls-8"/><path id="path107" fill="#fff" d="m 55.74,141.48 h -4.49 v -4.1 h 13.6 v 4.1 h -4.48 v 23.29 h -4.63 z" class="cls-9"/><path id="path109" fill="#fff" d="m 70.57,164.77 v -27.39 h 6.65 c 5.72,0 8.37,2.24 8.37,8.08 0,5.84 -2.65,8.08 -8.37,8.08 h -2 v 11.23 z m 4.63,-15.1 H 77 c 3,0 4,-0.95 4,-4.21 0,-3.26 -0.93,-4.21 -4,-4.21 h -1.8 z" class="cls-9"/><path id="path111" fill="#fff" d="m 93.06,164.77 h -4.48 l 5,-27.39 h 5.72 l 5,27.39 H 99.78 L 99,158.7 h -5.12 z m 1.49,-10.17 h 3.74 l -1.83,-11.76 h -0.08 z" class="cls-9"/><path id="path113" fill="#fff" d="m 119.28,146.52 v -2.12 c 0,-2.31 -1,-3.3 -2.24,-3.3 -1.87,0 -2.46,1 -2.46,3 V 158 c 0,2 0.6,3 2.46,3 1.68,0 2.24,-1 2.24,-2.77 V 155 h 4.63 v 3.15 c 0,3.87 -2.24,7 -6.87,7 -4.86,0 -7.1,-3.15 -7.1,-7 V 144 c 0,-3.87 2.24,-7 7.1,-7 4.63,0 6.87,3.41 6.87,7.51 v 2 z" class="cls-9"/><path id="path115" fill="#fff" d="m 144.8,148.75 a 2.54,2.54 0 0 1 0,5.08 2.54,2.54 0 0 1 0,-5.08 z" class="cls-9"/><path id="path117" fill="#fff" d="m 165.24,164.77 v -27.39 h 4.63 v 23.29 h 7.28 v 4.1 z" class="cls-9"/><path id="path119" fill="#fff" d="m 189.3,164.77 h -4.63 v -11.38 l -5.6,-16 h 4.71 l 3.22,10.42 h 0.07 l 3.1,-10.43 h 4.71 l -5.6,16 z" class="cls-9"/><path id="path121" fill="#fff" d="m 200.51,144 c 0,-3.87 2.24,-7 7.1,-7 4.86,0 7.1,3.15 7.1,7 v 14.11 c 0,3.87 -2.24,7 -7.1,7 -4.86,0 -7.1,-3.15 -7.1,-7 z m 4.63,14 c 0,2 0.6,3 2.46,3 1.86,0 2.47,-1 2.47,-3 v -13.87 c 0,-2 -0.6,-3 -2.47,-3 -1.87,0 -2.46,1 -2.46,3 z" class="cls-9"/><path id="path123" fill="#fff" d="m 222.17,164.77 v -27.39 h 4.3 l 5.64,15.62 h 0.08 v -15.62 h 4.18 v 27.39 h -4 l -5.9,-17.11 h -0.07 v 17.11 z" class="cls-9"/><path id="path125" fill="#fff" d="m 257,148.75 a 2.54,2.54 0 0 1 0,5.08 2.54,2.54 0 0 1 0,-5.08 z" class="cls-9"/><path id="path127" fill="#fff" d="m 277.09,164.77 v -3.68 c 5.75,-8.53 8.89,-13.24 8.89,-17.26 0,-2.16 -0.82,-3.11 -2.09,-3.11 -1.49,0 -2.24,1.18 -2.24,2.85 v 1.86 h -4.41 v -1.29 c 0,-4 2.54,-7.13 6.87,-7.13 a 6.06,6.06 0 0 1 6.28,6.07 c 0,4.32 -1.34,7.51 -8.59,17.83 h 8.2 v 3.87 z" class="cls-9"/><path id="path129" fill="#fff" d="m 296.75,144.51 c 0,-5.16 1.94,-7.51 6.57,-7.51 4.63,0 6.57,2.35 6.57,7.51 v 13.13 c 0,5.16 -1.94,7.51 -6.57,7.51 -4.63,0 -6.57,-2.35 -6.57,-7.51 z m 8.74,-1.18 c 0,-1.78 -0.78,-2.62 -2.17,-2.62 -1.39,0 -2.17,0.83 -2.17,2.62 v 15.48 c 0,1.78 0.78,2.62 2.17,2.62 1.39,0 2.17,-0.83 2.17,-2.62 z" class="cls-9"/><path id="path131" fill="#fff" d="m 320.09,143.07 h -3.66 v -2.54 a 28.14,28.14 0 0 0 5.49,-3.53 h 2.35 v 27.77 h -4.18 z" class="cls-9"/><path id="path133" fill="#fff" d="m 335.71,150.17 a 6.71,6.71 0 0 1 -2.43,-5.46 c 0,-5.31 2.39,-7.7 6.2,-7.7 3.81,0 6.2,2.39 6.2,7.7 a 6.71,6.71 0 0 1 -2.43,5.46 c 2.28,1.48 2.8,3.68 2.8,7 0,5.16 -2.24,8 -6.57,8 -4.33,0 -6.57,-2.81 -6.57,-8 0,-3.33 0.52,-5.53 2.8,-7 z m 6.16,6.71 c 0,-2.85 -0.6,-4.55 -2.39,-4.55 -1.79,0 -2.39,1.71 -2.39,4.55 0,2.84 0.6,4.55 2.39,4.55 1.79,0 2.39,-1.71 2.39,-4.55 z m -0.37,-12.4 c 0,-2.66 -0.6,-3.76 -2,-3.76 -1.4,0 -2,1.1 -2,3.76 0,2.66 0.6,3.75 2,3.75 1.4,0 2,-1.1 2,-3.75 z" class="cls-9"/></g></g></svg>